<svg width="12" height="12" viewBox="0 0 12 12" fill="none" xmlns="http://www.w3.org/2000/svg">
<path d="M4 1.5C2.6195 1.5 1.5 2.6195 1.5 4V8C1.5 9.3805 2.6195 10.5 4 10.5H8C9.3805 10.5 10.5 9.3805 10.5 8V4C10.5 2.6195 9.3805 1.5 8 1.5H4ZM9 2.5C9.276 2.5 9.5 2.724 9.5 3C9.5 3.276 9.276 3.5 9 3.5C8.724 3.5 8.5 3.276 8.5 3C8.5 2.724 8.724 2.5 9 2.5ZM6 3.5C7.3805 3.5 8.5 4.6195 8.5 6C8.5 7.3805 7.3805 8.5 6 8.5C4.6195 8.5 3.5 7.3805 3.5 6C3.5 4.6195 4.6195 3.5 6 3.5ZM6 4.5C5.60218 4.5 5.22064 4.65804 4.93934 4.93934C4.65804 5.22064 4.5 5.60218 4.5 6C4.5 6.39782 4.65804 6.77936 4.93934 7.06066C5.22064 7.34196 5.60218 7.5 6 7.5C6.39782 7.5 6.77936 7.34196 7.06066 7.06066C7.34196 6.77936 7.5 6.39782 7.5 6C7.5 5.60218 7.34196 5.22064 7.06066 4.93934C6.77936 4.65804 6.39782 4.5 6 4.5Z" fill="#1D9DD0"/>
</svg>
