<svg width="12" height="12" viewBox="0 0 12 12" fill="none" xmlns="http://www.w3.org/2000/svg">
<g clip-path="url(#clip0_148_261)">
<path fill-rule="evenodd" clip-rule="evenodd" d="M-0.0136719 -0.0134277C3.98633 -0.0134277 7.98633 -0.0134277 11.9863 -0.0134277C11.9863 3.98658 11.9863 7.98656 11.9863 11.9866C7.98633 11.9866 3.98633 11.9866 -0.0136719 11.9866C-0.0136719 7.98656 -0.0136719 3.98658 -0.0136719 -0.0134277Z" fill="#FEFEFE"/>
<path fill-rule="evenodd" clip-rule="evenodd" d="M6.56153 0.712992C6.08663 0.681593 5.61172 0.686078 5.13687 0.726445C5.09008 0.755027 5.07183 0.786418 5.08208 0.820615C4.99682 0.775314 4.90548 0.757379 4.80811 0.766804C4.94531 0.710788 5.09145 0.6794 5.24646 0.672633C5.63002 0.654695 6.01358 0.654695 6.39715 0.672633C6.45764 0.67777 6.51243 0.691223 6.56153 0.712992Z" fill="#1D9DD0"/>
<path fill-rule="evenodd" clip-rule="evenodd" d="M6.56158 0.712989C8.39076 0.976106 9.7652 1.8909 10.6849 3.45738C10.9879 3.97807 11.1843 4.53413 11.2739 5.12555C11.3026 5.65435 11.3071 6.18351 11.2876 6.71299C11.2785 6.73989 11.2693 6.7668 11.2602 6.79371C11.2203 6.66983 11.1974 6.66534 11.1917 6.78025C11.2298 6.88037 11.248 6.9835 11.2465 7.08967C10.8248 9.05078 9.66492 10.4095 7.76706 11.1659C5.72243 11.8297 3.86857 11.4979 2.20542 10.1704C0.57737 8.65944 0.0065932 6.82537 0.493088 4.66815C1.10016 2.70873 2.40153 1.43071 4.3972 0.834065C4.53177 0.795967 4.66876 0.773546 4.80816 0.766801C4.90553 0.757375 4.99687 0.775311 5.08213 0.820612C5.07188 0.786415 5.09013 0.755024 5.13692 0.726442C5.61177 0.686075 6.08668 0.68159 6.56158 0.712989Z" fill="#1D9DD0"/>
<path fill-rule="evenodd" clip-rule="evenodd" d="M4.80837 3.26904C4.70417 3.14396 4.60371 3.01392 4.507 2.87891C3.82206 2.86096 3.13713 2.86096 2.4522 2.87891C2.51575 2.94558 2.56142 3.02181 2.58919 3.10761C2.54277 3.07998 2.50624 3.04408 2.4796 2.99999C2.44591 2.95164 2.42764 2.89782 2.4248 2.83855C3.12009 2.84727 3.81415 2.83831 4.507 2.81165C4.60913 2.89645 4.69133 2.99509 4.75357 3.10761C4.78774 3.15666 4.80601 3.21047 4.80837 3.26904Z" fill="#1D9DD0"/>
<path fill-rule="evenodd" clip-rule="evenodd" d="M4.80831 3.26907C5.00629 3.59789 5.22546 3.9118 5.46585 4.21078C5.66382 4.53959 5.883 4.8535 6.12338 5.15248C6.15689 5.22712 6.19798 5.29888 6.24667 5.36773C6.2696 5.40827 6.30157 5.42173 6.34256 5.40809C6.57664 5.14694 6.80494 4.88237 7.02749 4.61436C7.35722 4.25471 7.67683 3.88699 7.9864 3.51123C8.06155 3.46444 8.11634 3.40164 8.15078 3.32288C8.22593 3.2761 8.28072 3.2133 8.31516 3.13454C8.41103 3.06281 8.49322 2.9776 8.56174 2.87894C8.76264 2.86099 8.96357 2.86099 9.16448 2.87894C9.14924 2.88924 9.14012 2.9027 9.13708 2.9193C9.10056 2.93724 9.07316 2.96415 9.05489 3.00001C8.80859 3.28594 8.56201 3.57292 8.31516 3.861C8.09503 4.09508 7.88497 4.33723 7.68503 4.58746C7.31092 4.99086 6.94563 5.4034 6.58914 5.82513C7.51179 7.15325 8.43415 8.4806 9.35626 9.80719C8.6902 9.86073 8.01442 9.87868 7.32886 9.861C7.21927 9.69957 7.10968 9.53813 7.00009 9.3767C6.85366 9.17837 6.70752 8.98105 6.56174 8.78477C6.20864 8.22757 5.82966 7.68946 5.42475 7.17042C5.02371 7.61372 4.62645 8.06216 4.23297 8.51571C4.08061 8.68005 3.9345 8.85044 3.79461 9.02692C3.53924 9.29579 3.29267 9.57381 3.05489 9.861C2.95442 9.86996 2.85398 9.87895 2.75352 9.88791C2.64214 9.88761 2.54169 9.86966 2.45215 9.8341C2.62589 9.66343 2.79029 9.48408 2.9453 9.29598C3.29878 8.89761 3.64582 8.49402 3.9864 8.08522C4.35198 7.69027 4.70815 7.28668 5.05489 6.87445C5.09996 6.84811 5.1365 6.81225 5.16448 6.76683C5.12787 6.69542 5.0822 6.63265 5.02749 6.57849C4.93804 6.41165 4.82845 6.25917 4.69872 6.12109C4.41856 5.67566 4.11719 5.24517 3.79461 4.82961C3.60582 4.50984 3.39576 4.20488 3.16448 3.91481C2.99382 3.63074 2.80204 3.36168 2.58913 3.10764C2.56136 3.02184 2.5157 2.94561 2.45215 2.87894C3.13708 2.86099 3.82201 2.86099 4.50694 2.87894C4.60366 3.01395 4.70412 3.14399 4.80831 3.26907Z" fill="#FAFCFC"/>
<path fill-rule="evenodd" clip-rule="evenodd" d="M9.13686 2.91931C9.1399 2.9027 9.14902 2.88925 9.16426 2.87895C8.96335 2.861 8.76242 2.861 8.56152 2.87895C8.493 2.97761 8.4108 3.06282 8.31494 3.13455C8.37206 3.03769 8.43601 2.94352 8.50672 2.85204C8.73486 2.83859 8.96316 2.83412 9.19165 2.83859C9.19754 2.88376 9.17927 2.91067 9.13686 2.91931Z" fill="#1D9DD0"/>
<path fill-rule="evenodd" clip-rule="evenodd" d="M2.47965 3C2.5063 3.0441 2.54283 3.07999 2.58924 3.10762C2.80215 3.36167 2.99393 3.63073 3.16458 3.9148C3.06801 3.87377 3.01321 3.80204 3.0002 3.69955C2.97138 3.69554 2.94398 3.70001 2.91801 3.713C2.88678 3.76609 2.85026 3.81543 2.80842 3.86099C2.77757 3.79507 2.79584 3.74126 2.86321 3.69955C2.89447 3.64787 2.89905 3.59405 2.87691 3.53812C2.78678 3.41941 2.70003 3.29833 2.61664 3.17489C2.58255 3.16262 2.55972 3.17607 2.54815 3.21525C2.52941 3.24979 2.53398 3.28119 2.56184 3.30942C2.5078 3.32274 2.453 3.32723 2.39746 3.32287C2.39746 3.287 2.39746 3.25111 2.39746 3.21525C2.44701 3.21549 2.49267 3.20204 2.53445 3.17489C2.50243 3.12089 2.48416 3.06261 2.47965 3Z" fill="#1D9DD0"/>
<path fill-rule="evenodd" clip-rule="evenodd" d="M8.31526 3.13451C8.28082 3.21326 8.22603 3.27606 8.15088 3.32285C8.17587 3.26648 8.20784 3.21267 8.24677 3.16142C8.26515 3.14118 8.28797 3.1322 8.31526 3.13451Z" fill="#1D9DD0"/>
<path fill-rule="evenodd" clip-rule="evenodd" d="M4.23283 3.32286C3.92012 3.31449 3.6096 3.32348 3.30132 3.34977C3.28645 3.34815 3.27732 3.33919 3.27393 3.32286C3.59795 3.28724 3.91757 3.28724 4.23283 3.32286Z" fill="#1D9DD0"/>
<path fill-rule="evenodd" clip-rule="evenodd" d="M9.05467 3C9.05875 3.0283 9.0542 3.05521 9.04097 3.08072C8.98913 3.12253 8.94804 3.17187 8.91768 3.2287C8.94519 3.27708 8.95889 3.32642 8.95878 3.37668C8.90365 3.37735 8.84886 3.37735 8.79439 3.37668C8.75875 3.39277 8.7359 3.41968 8.7259 3.4574C8.7679 3.55773 8.7542 3.57568 8.6848 3.51121C8.66365 3.51511 8.64538 3.52407 8.63001 3.53812C8.62154 3.57218 8.60785 3.60358 8.58891 3.63229C8.62848 3.67822 8.665 3.72753 8.6985 3.78027C8.6848 3.78923 8.67111 3.79822 8.65741 3.80717C8.60248 3.77115 8.5568 3.72632 8.52042 3.67265C8.44532 3.71481 8.41335 3.77761 8.42453 3.86099C8.38801 3.86099 8.35146 3.86099 8.31494 3.86099C8.56179 3.57291 8.80837 3.28593 9.05467 3Z" fill="#1D9DD0"/>
<path fill-rule="evenodd" clip-rule="evenodd" d="M4.23278 3.32285C5.64683 5.31711 7.06694 7.30814 8.49305 9.29595C8.53576 9.34214 8.55858 9.39595 8.56154 9.45738C8.24138 9.46631 7.92176 9.45735 7.60264 9.43047C6.16746 7.40261 4.73368 5.37569 3.30127 3.34976C3.60954 3.32347 3.92006 3.31448 4.23278 3.32285Z" fill="#1D9DD0"/>
<path fill-rule="evenodd" clip-rule="evenodd" d="M7.9863 3.51116C7.67674 3.88692 7.35712 4.25465 7.0274 4.6143C7.03326 4.57006 7.02411 4.5297 7 4.49322C7.04348 4.47003 7.08915 4.45208 7.13699 4.43941C7.11871 4.40354 7.09132 4.37664 7.05479 4.35869C7.09093 4.31489 7.12745 4.31938 7.16438 4.37214C7.26797 4.29404 7.35929 4.20433 7.43836 4.10308C7.47323 4.03625 7.47323 3.96899 7.43836 3.90129C7.47142 3.86631 7.4897 3.82595 7.49315 3.78021C7.52197 3.78422 7.54937 3.77976 7.57534 3.76676C7.59041 3.71712 7.61781 3.67676 7.65753 3.64569C7.68181 3.66788 7.69093 3.69479 7.68493 3.7264C7.71233 3.7264 7.73973 3.7264 7.76712 3.7264C7.73471 3.65551 7.71189 3.58375 7.69863 3.51116C7.78493 3.46647 7.82603 3.49337 7.82192 3.59187C7.84932 3.59187 7.87671 3.59187 7.90411 3.59187C7.90411 3.56497 7.90411 3.53806 7.90411 3.51116C7.93151 3.51116 7.9589 3.51116 7.9863 3.51116Z" fill="#1D9DD0"/>
<path fill-rule="evenodd" clip-rule="evenodd" d="M8.3152 3.86096C8.13355 4.12886 7.9235 4.37102 7.68506 4.58742C7.885 4.3372 8.09506 4.09504 8.3152 3.86096Z" fill="#1D9DD0"/>
<path fill-rule="evenodd" clip-rule="evenodd" d="M3.16457 3.91479C3.39586 4.20487 3.60591 4.50982 3.79471 4.82959C3.69424 4.76209 3.62118 4.67241 3.57553 4.56053C3.45756 4.66644 3.34797 4.66194 3.24676 4.54708C3.32657 4.55488 3.40876 4.55938 3.49334 4.56053C3.53608 4.43857 3.49041 4.3758 3.35635 4.37219C3.36035 4.30649 3.33753 4.28854 3.28786 4.31838C3.27444 4.28359 3.26986 4.2477 3.27416 4.21076C3.18482 4.22152 3.16654 4.19012 3.21937 4.11659C3.18211 4.05551 3.16383 3.98825 3.16457 3.91479Z" fill="#1D9DD0"/>
<path fill-rule="evenodd" clip-rule="evenodd" d="M5.46582 4.21082C5.49322 4.21082 5.52061 4.21082 5.54801 4.21082C5.57083 4.28769 5.60735 4.35942 5.6576 4.42606C5.685 4.3902 5.7124 4.3902 5.73979 4.42606C5.80878 4.66025 5.92752 4.86654 6.09596 5.0449C6.12141 5.07689 6.13053 5.11275 6.12335 5.15252C5.88297 4.85354 5.66379 4.53963 5.46582 4.21082Z" fill="#1D9DD0"/>
<path fill-rule="evenodd" clip-rule="evenodd" d="M11.356 5.58301C11.3878 5.91914 11.3924 6.25996 11.3697 6.60543C11.3621 6.63008 11.3484 6.64799 11.3286 6.65924C11.3514 6.30099 11.3606 5.94223 11.356 5.58301Z" fill="#1D9DD0"/>
<path fill-rule="evenodd" clip-rule="evenodd" d="M4.6984 6.12109C4.82813 6.25917 4.93772 6.41165 5.02717 6.57849C4.92391 6.50361 4.85087 6.40498 4.80799 6.28253C4.78059 6.28253 4.7532 6.28253 4.7258 6.28253C4.7235 6.41617 4.68695 6.42513 4.61621 6.30943C4.63881 6.2856 4.66621 6.27664 4.6984 6.28253C4.6984 6.22872 4.6984 6.17491 4.6984 6.12109Z" fill="#1D9DD0"/>
<path fill-rule="evenodd" clip-rule="evenodd" d="M11.2741 5.12561C11.3113 5.27324 11.3387 5.42572 11.3563 5.58301C11.3608 5.94223 11.3517 6.30099 11.3289 6.65924C11.3128 6.80822 11.2854 6.95171 11.2467 7.08974C11.2482 6.98357 11.2299 6.88044 11.1919 6.78032C11.1976 6.6654 11.2204 6.6699 11.2604 6.79377C11.2695 6.76687 11.2787 6.73996 11.2878 6.71305C11.3073 6.18357 11.3027 5.65442 11.2741 5.12561Z" fill="#1D9DD0"/>
<path fill-rule="evenodd" clip-rule="evenodd" d="M5.05488 6.87439C4.70814 7.28661 4.35198 7.6902 3.98639 8.08515C3.99195 8.04361 4.01022 8.00772 4.04118 7.97753C4.01858 7.95369 3.99118 7.94473 3.95899 7.95062C3.9362 7.83506 3.9362 7.72295 3.95899 7.6143C4.00009 7.46632 4.09598 7.37215 4.24666 7.33179C4.32661 7.35218 4.38598 7.39704 4.42474 7.46632C4.44688 7.41458 4.46058 7.36077 4.46584 7.30488C4.52554 7.32536 4.58488 7.3164 4.64392 7.27798C4.66946 7.21623 4.69228 7.15343 4.71242 7.08964C4.72376 7.10193 4.73746 7.11092 4.75351 7.11654C4.76715 7.08686 4.77628 7.05996 4.78091 7.03582C4.79918 7.04478 4.81743 7.05377 4.8357 7.06273C4.89261 7.02269 4.92 6.96888 4.91789 6.9013C4.96491 6.89782 5.01058 6.88886 5.05488 6.87439Z" fill="#1D9DD0"/>
<path fill-rule="evenodd" clip-rule="evenodd" d="M4.23279 8.51575C4.18704 8.59124 4.19616 8.65851 4.26019 8.71754C4.20745 8.71391 4.15265 8.70942 4.0958 8.70409C4.09235 8.74983 4.07408 8.79019 4.04101 8.82516C4.0772 8.9379 4.0498 8.96031 3.95882 8.89243C3.9023 8.9393 3.8475 8.98415 3.79443 9.02696C3.93432 8.85048 4.08043 8.68009 4.23279 8.51575Z" fill="#1D9DD0"/>
<path fill-rule="evenodd" clip-rule="evenodd" d="M6.56152 8.78479C6.7073 8.98107 6.85344 9.1784 6.99988 9.37672C6.93352 9.36098 6.88785 9.32062 6.86289 9.25564C6.83692 9.24265 6.80952 9.23818 6.7807 9.24219C6.78788 9.20242 6.77876 9.16656 6.7533 9.13457C6.72725 9.15679 6.69985 9.16126 6.67111 9.14802C6.68939 9.11215 6.70763 9.07626 6.72591 9.0404C6.63966 8.97405 6.58487 8.88883 6.56152 8.78479Z" fill="#1D9DD0"/>
<path fill-rule="evenodd" clip-rule="evenodd" d="M2.9453 9.29602C2.79029 9.48412 2.62589 9.66347 2.45215 9.83414C2.46867 9.7373 2.52347 9.67453 2.61653 9.6458C2.61886 9.58044 2.64626 9.52663 2.69872 9.48436C2.77371 9.4105 2.8559 9.34773 2.9453 9.29602Z" fill="#1D9DD0"/>
<path fill-rule="evenodd" clip-rule="evenodd" d="M9.35601 9.80713C9.37702 9.82521 9.3953 9.84762 9.4108 9.87439C8.71209 9.89673 8.01801 9.89223 7.32861 9.86094C8.01417 9.87862 8.68996 9.86067 9.35601 9.80713Z" fill="#1D9DD0"/>
</g>
<defs>
<clipPath id="clip0_148_261">
<rect width="12" height="12" fill="white"/>
</clipPath>
</defs>
</svg>
